<?xml version="1.0" encoding="UTF-8" standalone="no"?>
<!-- Generator: Adobe Illustrator 15.0.0, SVG Export Plug-In . SVG Version: 6.00 Build 0)  -->

<svg
   xmlns:dc="http://purl.org/dc/elements/1.1/"
   xmlns:cc="http://creativecommons.org/ns#"
   xmlns:rdf="http://www.w3.org/1999/02/22-rdf-syntax-ns#"
   xmlns:svg="http://www.w3.org/2000/svg"
   xmlns="http://www.w3.org/2000/svg"
   xmlns:sodipodi="http://sodipodi.sourceforge.net/DTD/sodipodi-0.dtd"
   xmlns:inkscape="http://www.inkscape.org/namespaces/inkscape"
   version="1.1"
   x="0px"
   y="0px"
   width="1162.998px"
   height="1163px"
   viewBox="-29.999 0 1162.998 1163"
   enable-background="new -29.999 0 1162.998 1163"
   xml:space="preserve"
   id="svg2"
   inkscape:version="0.91 r13725"
   sodipodi:docname="Modern_nautical_compass_rose_MN.svg"><metadata
     id="metadata45"><rdf:RDF><cc:Work
         rdf:about=""><dc:format>image/svg+xml</dc:format><dc:type
           rdf:resource="http://purl.org/dc/dcmitype/StillImage" /></cc:Work></rdf:RDF></metadata><defs
     id="defs43" /><sodipodi:namedview
     pagecolor="#ffffff"
     bordercolor="#666666"
     borderopacity="1"
     objecttolerance="10"
     gridtolerance="10"
     guidetolerance="10"
     inkscape:pageopacity="0"
     inkscape:pageshadow="2"
     inkscape:window-width="1107"
     inkscape:window-height="824"
     id="namedview41"
     showgrid="false"
     inkscape:zoom="0.47693642"
     inkscape:cx="121.79843"
     inkscape:cy="510.2428"
     inkscape:window-x="21"
     inkscape:window-y="0"
     inkscape:window-maximized="0"
     inkscape:current-layer="svg2" /><g
     id="svg1901" /><path
     inkscape:connector-curvature="0"
     d="m 495.772,271.101 -4.396,-24.68 m -48.626,38.987 -8.615,-23.542 m -41.117,46.838 -12.571,-21.687 m -32.36,53.265 -16.147,-19.175 m -22.618,58.076 -19.232,-16.08 m -12.19,61.122 -21.731,-12.497 m -1.391,62.311 -23.572,-8.533 m 9.45,61.604 -24.694,-4.311 m 20.003,59.029 -25.068,0.043 m 29.95,54.658 -24.68,4.396 m 38.987,48.627 -23.542,8.614 m 46.838,41.117 -21.688,12.572 m 53.266,32.36 -19.175,16.147 m 58.076,22.617 -16.08,19.232 m 61.122,12.19 -12.497,21.731 m 62.31,1.392 -8.533,23.571 m 61.605,-9.45 -4.31,24.695 m 59.028,-20.004 0.044,25.068 m 54.656,-29.95 4.396,24.68 m 48.626,-38.986 8.615,23.541 m 41.117,-46.838 12.573,21.688 m 32.36,-53.266 16.146,19.176 m 22.618,-58.076 19.232,16.079 m 12.19,-61.121 21.732,12.496 m 1.391,-62.31 23.57,8.533 m -9.449,-61.605 24.695,4.31 m -20.004,-59.027 25.068,-0.045 m -29.951,-54.656 24.68,-4.396 m -38.986,-48.626 23.542,-8.615 M 823.597,423.272 845.284,410.7 m -53.266,-32.359 19.176,-16.147 m -58.077,-22.619 16.081,-19.231 m -61.122,-12.19 12.496,-21.731 m -62.309,-1.392 8.532,-23.57 m -61.603,9.449 4.31,-24.694 m -59.029,20.003 -0.043,-25.067 m -27.413,26.314 -1.578,-17.673 m -52.49,27.303 -4.622,-17.131 m -46.95,36.004 -7.527,-16.067 m -39.986,43.609 -10.202,-14.517 m -31.805,49.891 -12.569,-12.524 m -22.658,54.656 -14.553,-10.152 m -12.823,57.76 -16.094,-7.471 m -2.599,59.11 -17.147,-4.563 m 7.705,58.663 -17.679,-1.516 m 17.775,56.434 -17.673,1.577 m 21.308,25.666 -17.469,3.112 m 23.465,23.711 -17.131,4.622 m 36.004,46.952 -16.068,7.526 m 43.61,39.985 -14.518,10.203 m 49.892,31.805 -12.526,12.569 m 54.656,22.659 -10.152,14.553 m 57.761,12.822 -7.471,16.096 m 59.109,2.597 -4.562,17.147 m 58.662,-7.706 -1.516,17.68 m 56.434,-17.774 1.578,17.673 m 52.488,-27.305 4.623,17.132 m 46.951,-36.004 7.527,16.067 m 39.985,-43.609 10.203,14.517 m 31.805,-49.891 12.568,12.525 m 22.658,-54.656 14.553,10.152 m 12.824,-57.76 16.095,7.47 m 2.597,-59.109 17.147,4.562 m -7.704,-58.662 17.68,1.515 m -17.777,-56.433 17.673,-1.577 m -27.303,-52.489 17.131,-4.622 m -36.005,-46.951 16.069,-7.527 m -43.611,-39.986 14.518,-10.202 m -49.891,-31.806 12.525,-12.568 m -54.656,-22.659 10.151,-14.552 m -57.759,-12.823 7.472,-16.095 m -59.11,-2.599 4.562,-17.147 m -58.663,7.706 1.516,-17.68 m -34.475,16.586 -0.199,-10.405 m -5.297,10.558 -0.381,-10.4 m -5.113,10.65 -0.562,-10.393 m -4.925,10.738 -0.744,-10.381 m -10.21,11.359 -1.105,-10.349 m -4.356,10.981 -1.287,-10.327 m -4.164,11.054 -1.467,-10.303 m -3.97,11.124 -1.646,-10.275 m -9.18,12.204 -2.004,-10.212 m -3.384,11.319 -2.181,-10.176 m -3.184,11.375 -2.358,-10.136 m -2.987,11.429 -2.535,-10.094 m -8.082,12.959 -2.886,-9.999 m -2.384,11.57 -3.06,-9.948 m -2.181,11.61 -3.234,-9.892 m -1.978,11.646 -3.405,-9.835 m -6.922,13.615 -3.747,-9.71 m -1.365,11.733 -3.916,-9.643 m -1.161,11.756 -4.083,-9.572 m -0.956,11.773 -4.249,-9.499 M 412.418,298.345 407.84,289 m -0.339,11.807 -4.74,-9.264 m -0.133,11.812 -4.901,-9.181 m 0.074,11.813 -5.061,-9.093 m -4.453,14.609 -5.376,-8.911 m 0.693,11.793 -5.53,-8.816 m 0.897,11.778 -5.683,-8.719 m 1.103,11.761 -5.833,-8.617 m -3.164,14.941 -6.132,-8.408 m 1.717,11.686 -6.277,-8.3 m 1.921,11.654 -6.422,-8.188 m 2.125,11.619 -6.563,-8.076 m -1.849,15.16 -6.842,-7.842 m 2.73,11.492 -6.977,-7.722 m 2.93,11.445 -7.111,-7.6 m 3.129,11.392 -7.243,-7.475 m -0.52,15.264 -7.499,-7.216 m 3.722,11.212 -7.624,-7.084 m 3.916,11.145 -7.746,-6.951 m 4.109,11.075 -7.866,-6.813 m 0.812,15.249 -8.099,-6.536 m 4.683,10.846 -8.211,-6.394 m 4.871,10.762 -8.322,-6.249 m 5.06,10.675 -8.43,-6.103 m 2.138,15.121 -8.638,-5.805 m 5.611,10.396 -8.738,-5.653 m 5.792,10.296 -8.835,-5.499 m 5.97,10.192 -8.931,-5.345 m 3.449,14.878 -9.11,-5.029 m 6.495,9.866 -9.197,-4.87 m 6.666,9.752 -9.282,-4.708 m 6.838,9.634 -9.362,-4.546 m 4.731,14.521 -9.514,-4.217 m 7.331,9.262 -9.586,-4.049 m 7.49,9.133 -9.657,-3.882 m 7.651,9.003 -9.723,-3.713 m 5.979,14.052 -9.845,-3.371 m 8.11,8.589 -9.903,-3.199 m 8.259,8.445 -9.958,-3.025 m 8.405,8.302 -10.008,-2.852 m 7.181,13.479 -10.103,-2.501 m 8.829,7.849 -10.145,-2.324 m 8.964,7.694 -10.184,-2.146 m 9.097,7.537 -10.22,-1.969 m 8.329,12.802 -10.282,-1.61 m 9.479,7.049 -10.309,-1.431 m 9.6,6.884 -10.331,-1.249 m 9.718,6.714 -10.352,-1.07 m 9.413,12.027 -10.383,-0.709 m 10.057,6.198 -10.395,-0.527 m 10.165,6.021 -10.401,-0.346 m 10.267,5.843 -10.407,-0.164 m 10.425,11.161 -10.405,0.199 m 10.558,5.297 -10.399,0.382 m 10.649,5.111 -10.392,0.563 m 10.737,4.926 -10.38,0.743 m 11.359,10.21 -10.349,1.106 m 10.981,4.356 -10.327,1.286 m 11.053,4.165 -10.303,1.466 m 11.125,3.969 -10.275,1.646 m 12.205,9.181 -10.212,2.003 m 11.317,3.384 -10.176,2.181 m 11.375,3.184 -10.135,2.359 m 11.429,2.986 -10.094,2.535 m 12.958,8.082 -9.999,2.887 m 11.57,2.383 -9.947,3.061 m 11.61,2.18 -9.892,3.234 m 11.645,1.978 -9.833,3.405 m 13.613,6.922 -9.708,3.746 m 11.731,1.367 -9.642,3.915 m 11.757,1.162 -9.573,4.083 m 11.773,0.956 -9.5,4.249 m 14.165,5.709 -9.346,4.579 m 11.809,0.337 -9.265,4.741 m 11.812,0.133 -9.18,4.902 m 11.813,-0.075 -9.093,5.062 m 14.607,4.452 -8.91,5.375 m 11.792,-0.692 -8.816,5.53 m 11.778,-0.897 -8.718,5.683 m 11.761,-1.104 -8.618,5.836 m 14.941,3.161 -8.409,6.132 m 11.687,-1.717 -8.3,6.278 m 11.656,-1.921 -8.189,6.421 m 11.62,-2.124 -8.076,6.562 m 15.159,1.85 -7.843,6.841 m 11.493,-2.729 -7.722,6.978 m 11.444,-2.93 -7.599,7.11 m 11.391,-3.128 -7.474,7.241 m 15.264,0.521 -7.217,7.499 m 11.212,-3.721 -7.084,7.624 m 11.144,-3.916 -6.949,7.745 m 11.074,-4.109 -6.814,7.866 m 15.251,-0.812 -6.535,8.1 m 10.844,-4.684 -6.393,8.212 m 10.761,-4.873 -6.249,8.322 m 10.675,-5.058 -6.103,8.43 m 15.122,-2.139 -5.804,8.638 m 10.394,-5.611 -5.652,8.738 m 10.295,-5.792 -5.499,8.836 m 10.193,-5.97 -5.344,8.929 m 14.877,-3.448 -5.03,9.11 m 9.866,-6.494 -4.869,9.197 m 9.752,-6.668 -4.708,9.281 m 9.633,-6.835 -4.546,9.361 m 14.521,-4.731 -4.216,9.515 m 9.261,-7.331 -4.049,9.588 m 9.133,-7.493 -3.882,9.656 m 9.002,-7.65 -3.712,9.722 m 14.052,-5.978 -3.37,9.847 m 8.589,-8.112 -3.199,9.904 m 8.445,-8.26 -3.024,9.958 m 8.299,-8.404 -2.851,10.008 m 13.478,-7.182 -2.5,10.104 m 7.85,-8.829 -2.324,10.145 m 7.694,-8.964 -2.146,10.183 m 7.536,-9.096 -1.968,10.218 m 12.801,-8.327 -1.611,10.281 m 7.051,-9.478 -1.431,10.309 m 6.884,-9.601 -1.251,10.332 m 6.715,-9.72 -1.07,10.353 m 12.027,-9.413 -0.708,10.382 m 6.197,-10.056 -0.527,10.394 m 6.02,-10.163 -0.345,10.4 m 5.843,-10.266 -0.163,10.405 m 11.16,-10.425 0.199,10.405 m 5.297,-10.558 0.382,10.4 m 5.112,-10.65 0.562,10.393 m 4.925,-10.738 0.744,10.38 m 10.21,-11.357 1.105,10.349 m 4.357,-10.981 1.285,10.327 m 4.165,-11.055 1.466,10.303 m 3.971,-11.125 1.646,10.275 m 9.18,-12.204 2.004,10.213 m 3.384,-11.318 2.181,10.176 m 3.183,-11.376 2.36,10.137 m 2.986,-11.428 2.535,10.092 m 8.082,-12.959 2.887,9.999 m 2.382,-11.569 3.061,9.946 m 2.18,-11.609 3.234,9.892 m 1.978,-11.646 3.405,9.835 m 6.922,-13.614 3.748,9.71 m 1.365,-11.735 3.916,9.643 m 1.16,-11.755 4.083,9.572 m 0.956,-11.773 4.25,9.499 m 5.708,-14.164 4.578,9.345 m 0.339,-11.807 4.74,9.264 m 0.133,-11.812 4.902,9.181 m -0.074,-11.813 5.061,9.093 m 4.453,-14.608 5.375,8.911 m -0.692,-11.792 5.531,8.815 m -0.899,-11.777 5.683,8.717 m -1.102,-11.761 5.834,8.618 m 3.163,-14.941 6.133,8.408 m -1.718,-11.687 6.276,8.3 m -1.92,-11.654 6.422,8.188 m -2.125,-11.619 6.563,8.076 m 1.849,-15.16 6.842,7.842 m -2.731,-11.492 6.978,7.722 m -2.93,-11.444 7.111,7.599 m -3.128,-11.391 7.241,7.474 m 0.52,-15.264 7.498,7.216 m -3.718,-11.211 7.623,7.084 m -3.916,-11.145 7.745,6.95 m -4.109,-11.075 7.865,6.814 m -0.811,-15.25 8.099,6.536 m -4.683,-10.846 8.212,6.395 m -4.873,-10.763 8.322,6.248 m -5.058,-10.674 8.43,6.103 m -2.139,-15.121 8.638,5.804 m -5.61,-10.395 8.736,5.653 m -5.791,-10.296 8.836,5.499 m -5.97,-10.193 8.93,5.346 m -3.449,-14.877 9.111,5.028 m -6.495,-9.866 9.196,4.87 m -6.666,-9.752 9.281,4.708 m -6.836,-9.633 9.361,4.545 m -4.731,-14.519 9.515,4.217 m -7.333,-9.264 9.588,4.049 m -7.49,-9.133 9.654,3.882 m -7.649,-9.001 9.724,3.712 m -5.981,-14.052 9.847,3.371 m -8.111,-8.59 9.903,3.198 m -8.258,-8.445 9.957,3.026 m -8.405,-8.3 10.01,2.851 m -7.181,-13.478 10.101,2.5 m -8.828,-7.851 10.145,2.325 m -8.964,-7.694 10.183,2.146 m -9.097,-7.537 10.22,1.968 m -8.329,-12.801 10.281,1.611 m -9.478,-7.05 10.309,1.431 m -9.601,-6.884 10.332,1.251 m -9.718,-6.716 10.352,1.071 m -9.413,-12.028 10.382,0.709 m -10.055,-6.197 10.393,0.527 m -10.163,-6.022 10.4,0.346 m -10.266,-5.842 10.405,0.163 m -10.425,-11.16 10.405,-0.2 m -10.559,-5.297 10.4,-0.381 m -10.649,-5.112 10.392,-0.562 m -10.737,-4.925 10.381,-0.744 m -11.358,-10.21 10.347,-1.105 m -10.979,-4.357 10.327,-1.286 m -11.054,-4.164 10.303,-1.466 m -11.125,-3.971 10.275,-1.646 m -12.205,-9.181 10.213,-2.003 m -11.319,-3.384 10.176,-2.182 m -11.375,-3.183 10.137,-2.358 m -11.429,-2.987 10.093,-2.535 m -12.958,-8.082 9.998,-2.886 m -11.569,-2.384 9.947,-3.06 m -11.609,-2.181 9.893,-3.233 m -11.647,-1.979 9.834,-3.404 m -13.614,-6.923 9.709,-3.746 m -11.732,-1.367 9.643,-3.914 m -11.756,-1.161 9.572,-4.083 m -11.775,-0.956 9.501,-4.25 m -14.165,-5.709 9.345,-4.578 m -11.807,-0.338 9.264,-4.74 m -11.812,-0.133 9.181,-4.901 m -11.812,0.073 9.093,-5.062 m -14.609,-4.453 8.911,-5.374 m -11.792,0.691 8.816,-5.53 m -11.779,0.897 8.718,-5.683 m -11.761,1.103 8.617,-5.834 m -14.939,-3.162 8.407,-6.133 m -11.687,1.718 8.3,-6.277 m -11.655,1.921 8.189,-6.422 m -11.618,2.125 8.076,-6.563 m -15.16,-1.849 7.843,-6.842 m -11.494,2.73 7.721,-6.978 m -11.443,2.931 7.599,-7.111 m -11.39,3.128 7.473,-7.242 m -15.264,-0.52 7.217,-7.499 m -11.211,3.72 7.084,-7.623 m -11.145,3.917 6.949,-7.747 m -11.074,4.109 6.813,-7.865 m -15.249,0.812 6.534,-8.1 m -10.844,4.684 6.394,-8.211 m -10.761,4.872 6.249,-8.323 m -10.675,5.059 6.102,-8.43 m -15.122,2.139 5.805,-8.639 m -10.396,5.612 5.654,-8.737 m -10.297,5.791 5.5,-8.836 m -10.191,5.97 5.344,-8.93 m -14.879,3.449 5.028,-9.111 m -9.864,6.495 4.869,-9.196 m -9.751,6.666 4.708,-9.281 m -9.633,6.836 4.545,-9.361 m -14.521,4.73 4.217,-9.514 m -9.263,7.332 4.049,-9.588 m -9.133,7.491 3.881,-9.655 m -9,7.65 3.711,-9.723 m -14.052,5.979 3.371,-9.846 m -8.588,8.11 3.199,-9.902 m -8.445,8.258 3.024,-9.957 m -8.301,8.404 2.852,-10.009 m -13.479,7.181 2.5,-10.102 m -7.848,8.829 2.323,-10.145 m -7.694,8.963 2.146,-10.183 m -7.535,9.097 1.967,-10.219 m -12.801,8.327 1.61,-10.281 m -7.05,9.479 1.43,-10.309 m -6.883,9.601 1.25,-10.331 m -6.715,9.717 1.07,-10.352 m -12.027,9.413 0.709,-10.382 m -6.197,10.056 0.527,-10.394 m -6.021,10.164 0.346,-10.401 m -5.842,10.267 0.163,-10.405"
     stroke-width="2"
     stroke="param(outline) #000"
     fill="param(fill) #000"
     id="path6306_1_"
     style="stroke:#000000;stroke-opacity:1;stroke-width:2;stroke-miterlimit:4;stroke-dasharray:none" /><path
     inkscape:connector-curvature="0"
     d="m 550.596,336.632 0.221,126.866 m -0.315,-181.021 0.061,34.002"
     stroke-width="2"
     stroke="param(outline) #000"
     fill="param(fill) #000"
     id="path7048_1_"
     style="stroke:#000000;stroke-opacity:1;stroke-width:2;stroke-miterlimit:4;stroke-dasharray:none" /><path
     inkscape:connector-curvature="0"
     d="m 252.228,581.797 181.019,-0.316"
     stroke-width="2"
     stroke="param(outline) #000"
     fill="param(fill) #000"
     id="path7050_1_"
     style="stroke:#000000;stroke-opacity:1;stroke-width:2;stroke-miterlimit:4;stroke-dasharray:none" /><path
     inkscape:connector-curvature="0"
     d="M 551.546,880.07 551.231,699.051"
     stroke-width="2"
     stroke="param(outline) #000"
     fill="param(fill) #000"
     id="path7052_1_"
     style="stroke:#000000;stroke-opacity:1;stroke-width:2;stroke-miterlimit:4;stroke-dasharray:none" /><path
     inkscape:connector-curvature="0"
     d="M 849.819,580.753 668.8,581.068"
     stroke-width="2"
     stroke="param(outline) #000"
     fill="param(fill) #000"
     id="path7054_1_"
     style="stroke:#000000;stroke-opacity:1;stroke-width:2;stroke-miterlimit:4;stroke-dasharray:none" /><path
     inkscape:connector-curvature="0"
     d="m 492.22,288.321 6.691,33.336 m -62.713,-16.235 13.066,31.392 m -64.676,-3.69 18.939,28.238 m -64.153,9 24.084,24.001 m -61.164,21.343 28.304,18.84 m -55.826,32.866 31.436,12.956 m -48.342,43.126 33.36,6.574 m -33.155,110.01 33.336,-6.691 m -16.235,62.713 31.39,-13.066 m -3.689,64.676 28.238,-18.939 m 9.001,64.152 24,-24.084 m 21.343,61.166 18.84,-28.306 m 32.866,55.826 12.958,-31.436 m 43.123,48.342 6.575,-33.36 m 110.009,33.156 -6.691,-33.336 m 62.715,16.236 -13.067,-31.391 m 64.675,3.689 -18.938,-28.238 m 64.153,-9.002 -24.085,-24 m 61.165,-21.341 -28.304,-18.841 m 55.825,-32.867 -31.436,-12.956 m 48.342,-43.126 -33.359,-6.575 m 33.156,-110.009 -33.337,6.691 m 16.235,-62.712 -31.391,13.065 m 3.69,-64.675 -28.239,18.938 m -8.999,-64.151 -24.002,24.083 m -21.342,-61.165 -18.841,28.306 m -32.865,-55.827 -12.957,31.436 m -43.124,-48.341 -6.576,33.359 m -81.011,-37.509 1.695,16.917 m -59.125,-5.389 4.963,16.261 m -59.039,6.249 8.04,14.979 m -56.686,17.648 10.809,13.123 m -52.155,28.368 13.161,10.763 m -45.618,37.996 15.008,7.988 m -37.329,46.167 16.278,4.906 m -27.605,52.563 16.922,1.637 m -16.819,56.936 16.916,-1.695 m -5.389,59.125 16.261,-4.965 m 6.249,59.041 14.979,-8.04 m 17.648,56.686 13.124,-10.809 m 28.366,52.155 10.763,-13.162 m 37.997,45.618 7.988,-15.007 m 46.166,37.328 4.907,-16.277 m 52.562,27.605 1.637,-16.923 m 56.937,16.821 -1.694,-16.917 m 59.123,5.388 -4.963,-16.261 m 59.04,-6.248 -8.041,-14.979 m 56.687,-17.648 -10.809,-13.124 m 52.154,-28.367 -13.16,-10.761 m 45.617,-37.998 -15.008,-7.987 m 37.33,-46.168 -16.278,-4.907 m 27.605,-52.561 -16.923,-1.638 m 16.821,-56.936 -16.918,1.696 m 5.391,-59.126 -16.262,4.964 m -6.248,-59.04 -14.981,8.04 m -17.647,-56.686 -13.123,10.808 m -28.368,-52.155 -10.762,13.162 m -37.997,-45.619 -7.988,15.009 m -46.167,-37.329 -4.906,16.278 m -52.563,-27.606 -1.637,16.924 m -42.315,-17.926 0.571,11.228 m -29.747,-8.302 1.668,11.117 m -30.417,-5.347 2.75,10.9 m -30.796,-2.338 3.806,10.577 m -30.876,0.691 4.824,10.154 m -30.66,3.715 5.795,9.632 m -30.147,6.701 6.713,9.019 m -29.347,9.623 7.564,8.315 m -28.262,12.456 8.343,7.534 m -26.904,15.165 9.041,6.68 m -25.29,17.729 9.652,5.762 m -23.428,20.123 10.17,4.788 m -21.345,22.321 10.591,3.769 m -19.053,24.305 10.909,2.713 m -16.579,26.057 11.123,1.63 m -13.946,27.556 11.228,0.531 m -11.177,28.792 11.227,-0.57 m -8.302,29.746 11.117,-1.67 m -5.345,30.419 10.9,-2.75 m -2.34,30.794 10.578,-3.805 m 0.691,30.876 10.154,-4.823 m 3.714,30.66 9.632,-5.796 m 6.702,30.148 9.017,-6.713 m 9.624,29.347 8.316,-7.563 m 12.455,28.26 7.535,-8.343 m 15.163,26.906 6.682,-9.041 m 17.728,25.289 5.762,-9.652 m 20.122,23.429 4.789,-10.171 m 22.322,21.344 3.769,-10.59 m 24.305,19.053 2.713,-10.909 m 26.056,16.579 1.629,-11.122 m 27.557,13.945 0.532,-11.229 m 28.791,11.178 -0.572,-11.228 m 29.748,8.302 -1.669,-11.116 m 30.418,5.345 -2.75,-10.899 m 30.795,2.338 -3.806,-10.578 m 30.876,-0.69 -4.824,-10.154 m 30.66,-3.714 -5.796,-9.632 m 30.149,-6.701 -6.712,-9.018 m 29.346,-9.625 -7.562,-8.316 m 28.261,-12.454 -8.344,-7.535 m 26.904,-15.164 -9.04,-6.682 m 25.289,-17.728 -9.653,-5.763 m 23.43,-20.121 -10.17,-4.788 m 21.344,-22.323 -10.592,-3.769 m 19.054,-24.305 -10.909,-2.712 m 16.579,-26.058 -11.123,-1.629 m 13.946,-27.556 -11.229,-0.531 m 11.178,-28.791 -11.227,0.571 m 8.301,-29.747 -11.116,1.668 m 5.347,-30.417 -10.901,2.749 m 2.338,-30.795 -10.576,3.807 m -0.693,-30.876 -10.153,4.823 m -3.714,-30.659 -9.633,5.795 m -6.702,-30.148 -9.017,6.711 m -9.624,-29.345 -8.315,7.562 m -12.456,-28.261 -7.533,8.344 m -15.166,-26.905 -6.68,9.041 m -17.728,-25.289 -5.762,9.652 m -20.123,-23.43 -4.788,10.172 m -22.321,-21.345 -3.769,10.59 m -24.306,-19.053 -2.713,10.909 m -26.057,-16.579 -1.63,11.122 m -27.556,-13.946 -0.532,11.229"
     stroke-width="2"
     stroke="param(outline) #000"
     fill="param(fill) #000"
     id="path7070_1_"
     style="stroke:#000000;stroke-opacity:1;stroke-width:2;stroke-miterlimit:4;stroke-dasharray:none" /><path
     inkscape:connector-curvature="0"
     d="m 190.355,581.903 -58.689,0.104"
     stroke-width="2"
     stroke="param(outline) #000"
     fill="param(fill) #000"
     id="path7846_1_"
     style="stroke:#000000;stroke-opacity:1;stroke-width:2;stroke-miterlimit:4;stroke-dasharray:none" /><path
     inkscape:connector-curvature="0"
     d="m 551.655,941.942 0.103,58.689"
     stroke-width="2"
     stroke="param(outline) #000"
     fill="param(fill) #000"
     id="path7848_1_"
     style="stroke:#000000;stroke-opacity:1;stroke-width:2;stroke-miterlimit:4;stroke-dasharray:none" /><path
     inkscape:connector-curvature="0"
     d="m 911.692,580.645 58.689,-0.104"
     stroke-width="2"
     stroke="param(outline) #000"
     fill="param(fill) #000"
     id="path7850_1_"
     style="stroke:#000000;stroke-opacity:1;stroke-width:2;stroke-miterlimit:4;stroke-dasharray:none" /><path
     inkscape:connector-curvature="0"
     d="m 550.394,220.606 -0.103,-58.689 m 8.307,18.664 -8.306,-18.361 0,0 -8.242,18.389"
     stroke-width="3"
     stroke="param(outline) #000"
     fill="param(fill) #000"
     id="path7844_1_"
     style="fill-opacity:0;stroke:#000000;stroke-opacity:1;stroke-width:3;stroke-miterlimit:4;stroke-dasharray:none;fill:#000000" /><text
     style="font-size:18px;font-family:ArialMT"
     id="text16"
     font-size="18"
     fill="param(fill) #000"
     transform="matrix(0.99999838,-0.0018,0.0018,0.99999838,0,0)"
     x="545.48816"
     y="237.51036">0</text>
<text
     style="font-size:18px;font-family:ArialMT"
     id="text18"
     font-size="18"
     fill="param(fill) #000"
     transform="matrix(0.86689226,0.49849555,-0.49849555,0.86689226,0,0)"
     x="759.23785"
     y="-114.34903">30</text>
<text
     style="font-size:18.00065994px;font-family:ArialMT"
     id="text20"
     font-size="18"
     fill="param(fill) #000"
     transform="matrix(0.50148162,0.8651683,-0.8651683,0.50148162,0,0)"
     x="770.34186"
     y="-529.61432">60</text>
<text
     style="font-size:18px;font-family:ArialMT"
     id="text22"
     font-size="18"
     fill="param(fill) #000"
     transform="matrix(0.0018,0.99999838,-0.99999838,0.0018,0,0)"
     x="573.99634"
     y="-892.23315">90</text>
<text
     style="font-size:18px;font-family:ArialMT"
     id="text24"
     font-size="18"
     fill="param(fill) #000"
     transform="matrix(-0.49849555,0.86689226,-0.86689226,-0.49849555,0,0)"
     x="217.16032"
     y="-1113.407">120</text>
<text
     style="font-size:18.00065994px;font-family:ArialMT"
     id="text26"
     font-size="18"
     fill="param(fill) #000"
     transform="matrix(-0.8651683,0.50148162,-0.50148162,-0.8651683,0,0)"
     x="-198.64798"
     y="-1123.317">150</text>
<text
     style="font-size:18px;font-family:ArialMT"
     id="text28"
     font-size="18"
     fill="param(fill) #000"
     transform="matrix(-0.99999838,0.0018,-0.0018,-0.99999838,0,0)"
     x="-564.1908"
     y="-925.46796">180</text>
<text
     style="font-size:18px;font-family:ArialMT"
     id="text30"
     font-size="18"
     fill="param(fill) #000"
     transform="matrix(-0.86689226,-0.49849555,0.49849555,-0.86689226,0,0)"
     x="-781.48315"
     y="-574.81659">210</text>
<text
     style="font-size:18.00065994px;font-family:ArialMT"
     id="text32"
     font-size="18"
     fill="param(fill) #000"
     transform="matrix(-0.50148162,-0.8651683,0.8651683,-0.50148162,0,0)"
     x="-793.64539"
     y="-159.03389">240</text>
<text
     style="font-size:18px;font-family:ArialMT"
     id="text34"
     font-size="18"
     fill="param(fill) #000"
     transform="matrix(-0.0018,-0.99999838,0.99999838,-0.0018,0,0)"
     x="-594.39453"
     y="205.75192">270</text>
<text
     style="font-size:18px;font-family:ArialMT"
     id="text36"
     font-size="18"
     fill="param(fill) #000"
     transform="matrix(0.49849555,-0.86689226,0.86689226,0.49849555,0,0)"
     x="-243.02423"
     y="424.64828">300</text>
<text
     style="font-size:18.00065994px;font-family:ArialMT"
     id="text38"
     font-size="18"
     fill="param(fill) #000"
     transform="matrix(0.8651683,-0.50148162,0.50148162,0.8651683,0,0)"
     x="170.75957"
     y="435.39688">330</text>
<path
     inkscape:connector-curvature="0"
     d="m 508.341,325.028 2.327,-0.336 4.082,7.43 1.825,-8.283 2.328,-0.336 1.669,11.543 -1.524,0.221 -1.465,-10.137 -1.832,8.348 -1.57,0.227 -4.121,-7.487 1.464,10.137 -1.516,0.22 -1.667,-11.547 m 18.286,-0.747 -1.585,5.981 4.27,-0.404 -2.685,-5.577 m -1.034,-1.464 1.782,-0.168 5.523,11.193 -1.634,0.155 -1.339,-2.879 -5.234,0.494 -0.776,3.079 -1.657,0.157 3.335,-12.031 m 16.583,8.902 -0.151,-3.129 -2.575,0.123 -0.062,-1.295 4.136,-0.199 0.241,5.002 c -0.589,0.462 -1.243,0.821 -1.967,1.081 -0.723,0.254 -1.5,0.4 -2.333,0.44 -1.821,0.087 -3.272,-0.375 -4.353,-1.386 -1.076,-1.018 -1.661,-2.476 -1.751,-4.375 -0.091,-1.904 0.35,-3.411 1.324,-4.521 0.979,-1.115 2.378,-1.718 4.2,-1.806 0.759,-0.037 1.484,0.022 2.175,0.177 0.695,0.154 1.34,0.399 1.935,0.736 l 0.081,1.678 c -0.606,-0.466 -1.244,-0.809 -1.91,-1.027 -0.668,-0.218 -1.363,-0.309 -2.086,-0.274 -1.425,0.069 -2.479,0.519 -3.158,1.349 -0.675,0.83 -0.974,2.033 -0.898,3.609 0.076,1.571 0.488,2.737 1.24,3.5 0.755,0.761 1.846,1.107 3.272,1.039 0.556,-0.026 1.051,-0.098 1.483,-0.212 0.432,-0.121 0.817,-0.291 1.157,-0.51 m 4.537,-10.134 2.125,0 5.168,9.76 0.003,-9.758 1.53,0.001 -0.004,11.663 -2.125,0 -5.167,-9.76 -0.003,9.758 -1.531,0 0.004,-11.664 m 12.48,0.103 7.368,0.328 -0.06,1.325 -5.792,-0.256 -0.151,3.45 5.55,0.246 -0.06,1.326 -5.55,-0.246 -0.187,4.223 5.932,0.262 -0.059,1.328 -7.509,-0.332 0.518,-11.654 m 8.963,0.408 9.833,0.829 -0.112,1.323 -4.125,-0.349 -0.868,10.301 -1.581,-0.134 0.867,-10.3 -4.125,-0.348 0.111,-1.322 m 11.69,1.074 1.567,0.177 -1.317,11.59 -1.568,-0.178 1.318,-11.589 m 13.572,2.733 -0.24,1.646 c -0.454,-0.566 -0.963,-1.015 -1.525,-1.344 -0.557,-0.329 -1.17,-0.542 -1.841,-0.641 -1.319,-0.192 -2.388,0.063 -3.208,0.771 -0.818,0.701 -1.338,1.814 -1.562,3.341 -0.223,1.52 -0.043,2.736 0.541,3.647 0.583,0.906 1.534,1.456 2.854,1.649 0.67,0.098 1.318,0.069 1.947,-0.087 0.633,-0.154 1.248,-0.438 1.846,-0.851 l -0.238,1.631 c -0.602,0.292 -1.222,0.484 -1.862,0.58 -0.636,0.097 -1.294,0.096 -1.974,-0.004 -1.746,-0.257 -3.044,-0.991 -3.893,-2.205 -0.85,-1.219 -1.137,-2.753 -0.867,-4.603 0.271,-1.855 0.988,-3.243 2.149,-4.163 1.162,-0.925 2.616,-1.26 4.362,-1.003 0.691,0.101 1.326,0.289 1.908,0.562 0.586,0.271 1.121,0.629 1.603,1.074"
     fill="param(fill) #000"
     id="text8238_1_" /></svg>